# xmcd
#
# Track frame offsets:
#	150
#	15547
#	34271
#	58943
#	79054
#	96290
#	118943
#	135197
#	149164
#	167070
#
# Disc length: 2458 seconds
# Revision: 0
# Processed by: cddbd v1.5.2PL0 Copyright (c) Steve Scherf et al.
# Submitted via: dBpowerAMP V12.0
#
DISCID=8b09980a
DTITLE=The Rogue Gene Featuring Belle Hendrik - Soul Food at Johnnie Lee Fongs
DYEAR=2011
DGENRE=Blues Soul
TTITLE0=On my Way
TTITLE1=My House
TTITLE2=I Got Love
TTITLE3=Woman in Love
TTITLE4=He's so Fine
TTITLE5=Whiskey Angel Blues
TTITLE6=You Can't Deny
TTITLE7=Goodbye Jack
TTITLE8=The One I Love
TTITLE9=There's a Rock
EXTD=
EXTT0=
EXTT1=
EXTT2=
EXTT3=
EXTT4=
EXTT5=
EXTT6=
EXTT7=
EXTT8=
EXTT9=
PLAYORDER=
